<svg xmlns="http://www.w3.org/2000/svg" viewBox="0 0 500 500"><defs><style>.cls-1{fill:#fff;}.cls-2{fill:#bbe2f2;}.cls-3{fill:#1c31b5;}.cls-4{fill:#009cf8;}.cls-5{fill:#006bde;}.cls-6{fill:#18315b;}.cls-7{fill:#000b29;}.cls-8{fill:#f97853;}.cls-9{fill:#ea5143;}.cls-10{fill:#ffa681;}.cls-11{fill:#264cbe;}.cls-12{fill:#e3e3e3;}.cls-13{fill:#1d567e;}</style></defs><g id="OBJECTS"><path class="cls-2" d="M216.79,158.1c-15.63-56.68-86-74.95-126.41-32.58q-.87.92-1.74,1.86c-57.86,62.89-30.52,217.88,90.23,257.17S425.21,352.09,432.27,288s-48.65-84.28-135.11-66.35C248.32,231.75,226.52,193.4,216.79,158.1Z"/><path class="cls-2" d="M317.23,167.8c-16.15,2.63-20.63,16.94-8.15,27.1,4.12,3.36,10,6.14,18.4,7.54,31.95,5.3,48.91-8.84,36.1-27.17C355.67,164,333.25,165.19,317.23,167.8Z"/><path class="cls-2" d="M59.64,282.34c-10-12.92-24.76-10-27.7,5.81-1,5.23-.6,11.74,2.19,19.77,10.65,30.59,31.18,38.71,41.14,18.69C81.41,314.25,69.59,295.15,59.64,282.34Z"/><path class="cls-2" d="M443.66,295.42c-1.49,7.79,4.94,13.31,12.23,10.31a15.42,15.42,0,0,0,7-6.27c8.24-12.81,4.07-23.8-7.4-22.68C448.41,277.48,445.13,287.7,443.66,295.42Z"/><path class="cls-2" d="M402.82,213.2c7.76,1.62,13.39-4.71,10.51-12a15.39,15.39,0,0,0-6.15-7.11c-12.67-8.46-23.73-4.47-22.8,7C385,208.14,395.12,211.6,402.82,213.2Z"/><path class="cls-2" d="M214.09,129.83c6.15,5,14.06,2,14.88-5.87a15.44,15.44,0,0,0-2.18-9.14c-7.36-13.33-19-14.88-23.47-4.26C200.57,117.12,208,124.86,214.09,129.83Z"/><path class="cls-3" d="M462.91,334.4c12.33-12.4,21.72-26.4,12.38-28.59S450.24,328,447.5,350.25l-2.74,7.34c2.28-16.16-3.26-35.84-11.36-36.65s-3.18,12,3.22,22.88c4.87,8.31,6.15,14.86,6.47,18.25l-12.93,34.64c3.53-25.59-5.24-56.64-18.07-57.93s-5,19,5.11,36.3c7.67,13.09,9.73,23.44,10.26,28.85l-2.58,6.91c1.13.64,2.26,1.26,3.4,1.89l15.38-41.22a49.65,49.65,0,0,1,13.9-7.06c12-4.06,24-10.51,17.42-15.18-5.74-4-19.23,3.75-28.52,14.76l5.32-14.26C454.18,345.65,457.59,339.75,462.91,334.4Z"/><path class="cls-3" d="M74.27,172.7c1.6-15,.36-29.44-7.09-25.87s-4.85,28.43,5.29,44.82l2.12,6.41C67.41,186,53.08,175.75,47.2,179.57s4.31,9.75,14.49,13.63c7.75,3,12.15,6.67,14.19,8.77l10,30.23C74.44,213.11,51.82,197,42.51,203s6.84,15.46,23,21.62c12.2,4.66,19.17,10.5,22.44,13.85l2,6c1.1-.18,2.2-.36,3.3-.56L81.35,208a43,43,0,0,1,5.52-12.23c5.87-9.19,10.48-20,3.53-19.58-6,.37-10.9,12.88-11.2,25.28L75.09,189A62,62,0,0,1,74.27,172.7Z"/><path class="cls-4" d="M379.68,375.57c.16.85.34,1.77.55,2.76h0c2.22,10.32,7.67,27.22,19.94,30.54,0,0-6.68-34.8,17.11-43.87s21.16-17.69,19.8-33.06-6.61-18.29,9.89-32.68,13.35-35.83,13.35-35.83S444.7,287.91,428,288.48s-19.6,14.81-18.89,25.4S395.66,325.67,388,331.81s-9.11,38.41-9.11,38.41S379.09,372.33,379.68,375.57Z"/><path class="cls-5" d="M379.68,375.57c.16.85.34,1.77.55,2.76a52.83,52.83,0,0,1,6.37-12.87c5.34-7.91,12.86-14.4,19.61-16.95,10.77-4.06,16-14.61,17-34.23.59-11.38,12.5-18.11,12.63-18.18a.72.72,0,0,0-.7-1.26c-.52.29-12.74,7.17-13.37,19.37-1,19-5.95,29.12-16.1,33-7.14,2.69-14.73,9.23-20.3,17.49A54.73,54.73,0,0,0,379.68,375.57Z"/><path class="cls-5" d="M116.36,408.68h16.71c-9-1.49-31.42-11.11-33.42-30.39-2.53-24.41-11.22-24.11-25.88-26.66s-18.68,1.61-28-17.35-30.06-21.34-30.06-21.34S34.64,333.58,31,349.27s8.93,22,19,23.92,7.64,15.47,11.46,24.14c1.74,4,8.87,8.06,16.11,11.35Z"/><path class="cls-3" d="M80.15,384.64c.73,7.32,4.93,16,11.25,23.27l.69.77H94c-.55-.57-1.06-1.14-1.54-1.69-6-6.94-10.22-15.55-10.92-22.49-1.1-11-9.63-18.55-27.65-24.38-10.46-3.38-13.77-16.15-13.8-16.28a.69.69,0,1,0-1.35.33c.14.56,3.51,13.65,14.72,17.28C70.87,367.08,79.11,374.23,80.15,384.64Z"/><path class="cls-4" d="M125.37,363.36c-.35,1.19-.75,2.48-1.2,3.85h0c-4.75,14.38-14.5,38.61-32.5,41.46,0,0,14.25-49.58-18.3-66.17S45.9,314,50.2,292.3s12.25-25.08-9.09-48.14S27.58,191,27.58,191s18.52,37.31,42.24,40.69,25.69,24.14,23.05,39.14,17.39,18.89,27.38,28.84,7.09,56.19,7.09,56.19S126.72,358.83,125.37,363.36Z"/><path class="cls-5" d="M125.37,363.36c-.35,1.19-.75,2.48-1.2,3.85a75.87,75.87,0,0,0-7.11-19.33c-6.4-12.1-16.12-22.52-25.37-27.2-14.73-7.44-20.61-23.3-19-51.45.91-16.33-15-27.76-15.21-27.87a1,1,0,0,1,1.19-1.7c.7.49,17.07,12.19,16.1,29.69-1.52,27.2,4,42.46,17.9,49.48,9.76,4.93,19.58,15.43,26.27,28.08A78.32,78.32,0,0,1,125.37,363.36Z"/><path class="cls-6" d="M138.28,397c.06,3.77.13,7.69.21,11.66h36.36c.07-4.34.12-8.5.16-12.41.11-10.58.12-19.29.11-24.71,0-3.83,0-6,0-6l-37.07-.4s0,3.21,0,8.45C138.08,379.42,138.14,387.76,138.28,397Z"/><path class="cls-7" d="M138.06,373.6c0,5.82.08,14.16.22,23.42a182.33,182.33,0,0,0,36.73-.75c.11-10.58.12-19.29.11-24.71Z"/><path class="cls-6" d="M92.46,388.66c0,5.93.11,12.72.23,20h36.36c.09-4.28.16-8.5.22-12.54.13-8.66.19-16.47.23-22.07s0-8.92,0-8.92l-37.09.4s0,3.93,0,10.55C92.41,379.6,92.43,383.84,92.46,388.66Z"/><path class="cls-7" d="M92.41,376.1c0,3.5,0,7.74,0,12.56a227.13,227.13,0,0,0,36.81,7.48c.13-8.66.19-16.47.23-22.07Z"/><path class="cls-6" d="M153.37,170.08s5.84-5.63,5.82-11.18-3.8-3.92-5.82-9.1-8.05-8.33-11.36-7.7-10.27-12.25-19.73-10-8.64,14.4-12.71,16.17-2.94,9-.79,10.61,3,8.24,4.26,8.09S153.37,170.08,153.37,170.08Z"/></g></svg>